<mxfile host="Electron" modified="2023-05-15T17:09:28.943Z" agent="Mozilla/5.0 (Windows NT 10.0; Win64; x64) AppleWebKit/537.36 (KHTML, like Gecko) draw.io/21.2.8 Chrome/112.0.5615.165 Electron/24.2.0 Safari/537.36" etag="iW3rZD5RG9iAZWhoZQ33" version="21.2.8" type="device">
  <diagram id="p1WFtV5cTaJLbCV86L4F" name="Page-1">
    <mxGraphModel dx="1290" dy="629" grid="1" gridSize="10" guides="1" tooltips="1" connect="1" arrows="1" fold="1" page="1" pageScale="1" pageWidth="1169" pageHeight="827" math="0" shadow="0">
      <root>
        <mxCell id="0" />
        <mxCell id="1" parent="0" />
        <mxCell id="rrxrWV5JKAd1Jxnc8wNa-6" value=":user.php" style="shape=umlLifeline;perimeter=lifelinePerimeter;whiteSpace=wrap;html=1;container=0;collapsible=0;recursiveResize=0;outlineConnect=0;" parent="1" vertex="1">
          <mxGeometry x="739.3296795580112" y="150" width="156.71973480662987" height="410" as="geometry" />
        </mxCell>
        <mxCell id="BHGGA8FH1MstIcf6RSHf-37" value="$_SESSION[&#39;successStatus&#39;]" style="html=1;verticalAlign=bottom;endArrow=open;dashed=1;endSize=8;rounded=0;elbow=vertical;entryX=1.079;entryY=0.094;entryDx=0;entryDy=0;entryPerimeter=0;exitX=-0.087;exitY=1.029;exitDx=0;exitDy=0;exitPerimeter=0;" parent="1" source="rrxrWV5JKAd1Jxnc8wNa-1" target="rrxrWV5JKAd1Jxnc8wNa-36" edge="1">
          <mxGeometry x="0.0035" relative="1" as="geometry">
            <mxPoint x="686.8058011049724" y="355" as="sourcePoint" />
            <mxPoint x="437.58591160221" y="355.72" as="targetPoint" />
            <mxPoint as="offset" />
            <Array as="points">
              <mxPoint x="676.7293650793649" y="355.3523424494649" />
            </Array>
          </mxGeometry>
        </mxCell>
        <mxCell id="rrxrWV5JKAd1Jxnc8wNa-1" value="" style="html=1;points=[];perimeter=orthogonalPerimeter;container=0;" parent="1" vertex="1">
          <mxGeometry x="810.0039682539683" y="300.51960591133" width="15.365079365079362" height="55.172413793103445" as="geometry" />
        </mxCell>
        <mxCell id="BHGGA8FH1MstIcf6RSHf-21" value="press Update button" style="html=1;verticalAlign=bottom;endArrow=block;rounded=0;elbow=vertical;entryX=-0.1;entryY=0.007;entryDx=0;entryDy=0;entryPerimeter=0;" parent="1" edge="1">
          <mxGeometry width="80" relative="1" as="geometry">
            <mxPoint x="200" y="233" as="sourcePoint" />
            <mxPoint x="412.45" y="232.76195005945306" as="targetPoint" />
            <mxPoint as="offset" />
          </mxGeometry>
        </mxCell>
        <mxCell id="mJ_MDuSwQOCXob1QKFZ1-4" value="" style="shape=umlLifeline;participant=umlActor;perimeter=lifelinePerimeter;whiteSpace=wrap;html=1;container=0;collapsible=0;recursiveResize=0;verticalAlign=top;spacingTop=36;outlineConnect=0;fontFamily=Helvetica;fontSize=12;fontColor=default;align=center;strokeColor=default;fillColor=default;size=50;" parent="1" vertex="1">
          <mxGeometry x="145.0974917127072" y="185.14285714285714" width="46.09498342541437" height="374.8571428571429" as="geometry" />
        </mxCell>
        <mxCell id="BHGGA8FH1MstIcf6RSHf-15" value="Admin" style="text;html=1;align=center;verticalAlign=middle;resizable=0;points=[];autosize=1;strokeColor=none;fillColor=none;container=0;movable=0;rotatable=0;deletable=0;editable=0;connectable=0;" parent="1" vertex="1">
          <mxGeometry x="145.1" y="150" width="60" height="30" as="geometry" />
        </mxCell>
        <mxCell id="OlgEAX7LOhgStRy0H8mc-7" value=":edituser.php" style="shape=umlLifeline;perimeter=lifelinePerimeter;whiteSpace=wrap;html=1;container=0;collapsible=0;recursiveResize=0;outlineConnect=0;" parent="1" vertex="1">
          <mxGeometry x="320.2600331491713" y="150" width="199.75027624309394" height="409.99999999999994" as="geometry" />
        </mxCell>
        <mxCell id="rrxrWV5JKAd1Jxnc8wNa-36" value="" style="html=1;points=[];perimeter=orthogonalPerimeter;container=0;" parent="1" vertex="1">
          <mxGeometry x="412.45246833829157" y="349.99823275862065" width="15.365405864853374" height="56.551724137931025" as="geometry" />
        </mxCell>
        <mxCell id="rrxrWV5JKAd1Jxnc8wNa-38" value="redirect manageaccounts.php" style="html=1;verticalAlign=bottom;endArrow=open;dashed=1;endSize=8;rounded=0;elbow=vertical;" parent="1" edge="1">
          <mxGeometry x="0.0035" relative="1" as="geometry">
            <mxPoint x="412.45246833829157" y="406.7199568965517" as="sourcePoint" />
            <mxPoint x="170.1825966850829" y="407" as="targetPoint" />
            <mxPoint as="offset" />
            <Array as="points">
              <mxPoint x="392.47744071398216" y="406.90862514863255" />
            </Array>
          </mxGeometry>
        </mxCell>
        <mxCell id="rrxrWV5JKAd1Jxnc8wNa-26" value="" style="html=1;points=[];perimeter=orthogonalPerimeter;container=0;" parent="1" vertex="1">
          <mxGeometry x="412.45246833829157" y="234.82758620689654" width="15.365405864853374" height="65.33137931034481" as="geometry" />
        </mxCell>
        <mxCell id="rrxrWV5JKAd1Jxnc8wNa-3" value="editUser($email, $password, $name, $userType, $orgName, $orgSite,&amp;nbsp; ," style="html=1;verticalAlign=bottom;endArrow=block;rounded=0;exitX=0.86;exitY=0.995;exitDx=0;exitDy=0;exitPerimeter=0;entryX=-0.148;entryY=-0.017;entryDx=0;entryDy=0;entryPerimeter=0;" parent="1" edge="1" target="rrxrWV5JKAd1Jxnc8wNa-1">
          <mxGeometry x="-0.0015" y="9" width="80" relative="1" as="geometry">
            <mxPoint x="432.7459964921511" y="297.4408425343979" as="sourcePoint" />
            <mxPoint x="701.0202822064368" y="298.24512315270937" as="targetPoint" />
            <mxPoint as="offset" />
          </mxGeometry>
        </mxCell>
        <mxCell id="rrxrWV5JKAd1Jxnc8wNa-40" value="&lt;font style=&quot;font-size: 11px;&quot;&gt;$category1,&amp;nbsp;$category2, $category3, $category4, $category5, $userid&lt;/font&gt;" style="text;html=1;align=center;verticalAlign=middle;resizable=0;points=[];autosize=1;strokeColor=none;fillColor=none;container=0;" parent="1" vertex="1">
          <mxGeometry x="430.0014217481124" y="300.51901477832513" width="360" height="30" as="geometry" />
        </mxCell>
      </root>
    </mxGraphModel>
  </diagram>
</mxfile>
